<svg width="298" height="384" viewBox="0 0 298 384" fill="none" xmlns="http://www.w3.org/2000/svg">
<g style="mix-blend-mode:color-dodge" filter="url(#filter0_f)">
<path d="M141.652 239.048C129.792 237.68 119.68 234.563 111.317 229.697C103.106 224.832 99 218.826 99 211.68V187.277H103.106C105.386 200.809 109.644 211.072 115.878 218.066C122.265 224.908 130.856 228.937 141.652 230.153V168.576L125.686 158.998C115.954 153.22 109.036 147.366 104.93 141.437C100.977 135.507 99 128.285 99 119.771C99 108.367 102.877 99.1687 110.632 92.1748C118.539 85.0288 128.879 81.3037 141.652 80.9997V68H150.776V81.4558C161.876 82.5201 171.608 85.4849 179.971 90.3503C188.334 95.2156 192.515 101.221 192.515 108.367V132.77H188.41C186.129 119.238 181.947 109.128 175.865 102.438C169.783 95.7478 161.42 91.7947 150.776 90.5783V148.279L170.163 159.682C180.503 165.915 187.802 171.693 192.059 177.015C196.317 182.336 198.446 189.102 198.446 197.312C198.446 210.236 194.188 220.499 185.673 228.101C177.31 235.703 165.677 239.504 150.776 239.504V253.872H141.652V239.048ZM141.652 90.1222C134.81 90.4263 128.955 92.7069 124.09 96.9641C119.224 101.221 116.791 106.619 116.791 113.157C116.791 119.39 118.615 124.56 122.265 128.665C126.066 132.618 132.529 137.331 141.652 142.805V90.1222ZM150.776 230.382C158.683 230.077 165.297 227.873 170.619 223.768C176.093 219.662 178.83 214.113 178.83 207.119C178.83 200.733 176.854 195.184 172.9 190.47C168.947 185.757 162.56 180.816 153.741 175.646L150.776 174.05V230.382Z" fill="#06E30F"/>
<path d="M141.652 239.048C129.792 237.68 119.68 234.563 111.317 229.697C103.106 224.832 99 218.826 99 211.68V187.277H103.106C105.386 200.809 109.644 211.072 115.878 218.066C122.265 224.908 130.856 228.937 141.652 230.153V168.576L125.686 158.998C115.954 153.22 109.036 147.366 104.93 141.437C100.977 135.507 99 128.285 99 119.771C99 108.367 102.877 99.1687 110.632 92.1748C118.539 85.0288 128.879 81.3037 141.652 80.9997V68H150.776V81.4558C161.876 82.5201 171.608 85.4849 179.971 90.3503C188.334 95.2156 192.515 101.221 192.515 108.367V132.77H188.41C186.129 119.238 181.947 109.128 175.865 102.438C169.783 95.7478 161.42 91.7947 150.776 90.5783V148.279L170.163 159.682C180.503 165.915 187.802 171.693 192.059 177.015C196.317 182.336 198.446 189.102 198.446 197.312C198.446 210.236 194.188 220.499 185.673 228.101C177.31 235.703 165.677 239.504 150.776 239.504V253.872H141.652V239.048ZM141.652 90.1222C134.81 90.4263 128.955 92.7069 124.09 96.9641C119.224 101.221 116.791 106.619 116.791 113.157C116.791 119.39 118.615 124.56 122.265 128.665C126.066 132.618 132.529 137.331 141.652 142.805V90.1222ZM150.776 230.382C158.683 230.077 165.297 227.873 170.619 223.768C176.093 219.662 178.83 214.113 178.83 207.119C178.83 200.733 176.854 195.184 172.9 190.47C168.947 185.757 162.56 180.816 153.741 175.646L150.776 174.05V230.382Z" stroke="#06DD02" stroke-width="20" stroke-linecap="round" stroke-linejoin="round"/>
</g>
<g style="mix-blend-mode:multiply" opacity="0.2" filter="url(#filter1_f)">
<path d="M142.206 252.344C130.346 250.975 120.234 247.859 111.871 242.993C103.66 238.128 99.5542 232.122 99.5542 224.976V200.573H103.66C105.941 214.105 110.198 224.368 116.433 231.362C122.819 238.204 131.41 242.233 142.206 243.449V181.872L126.24 172.293C116.509 166.516 109.59 160.662 105.484 154.732C101.531 148.803 99.5542 141.581 99.5542 133.066C99.5542 121.663 103.432 112.465 111.187 105.471C119.094 98.3247 129.434 94.5996 142.206 94.2956V81.2959H151.33V94.7517C162.43 95.816 172.162 98.7808 180.525 103.646C188.888 108.512 193.07 114.517 193.07 121.663V146.066H188.964C186.683 132.534 182.502 122.423 176.419 115.734C170.337 109.044 161.974 105.091 151.33 103.874V161.574L170.717 172.978C181.057 179.211 188.356 184.989 192.614 190.31C196.871 195.632 199 202.398 199 210.608C199 223.532 194.742 233.795 186.227 241.397C177.864 248.999 166.232 252.8 151.33 252.8V267.168H142.206V252.344ZM142.206 103.418C135.364 103.722 129.51 106.003 124.644 110.26C119.778 114.517 117.345 119.915 117.345 126.453C117.345 132.686 119.17 137.856 122.819 141.961C126.62 145.914 133.083 150.627 142.206 156.101V103.418ZM151.33 243.677C159.237 243.373 165.851 241.169 171.173 237.064C176.647 232.958 179.384 227.409 179.384 220.415C179.384 214.029 177.408 208.48 173.454 203.766C169.501 199.053 163.114 194.111 154.295 188.942L151.33 187.346V243.677Z" stroke="#00FF85" stroke-width="4.5602" stroke-linecap="round" stroke-linejoin="round"/>
</g>
<g style="mix-blend-mode:hard-light" filter="url(#filter2_dddii)">
<path d="M142.206 239.858C130.346 238.487 120.234 235.366 111.871 230.493C103.66 225.62 99.5542 219.606 99.5542 212.449V188.01H103.66C105.941 201.562 110.198 211.84 116.433 218.844C122.819 225.697 131.41 229.732 142.206 230.95V169.281L126.24 159.688C116.509 153.902 109.59 148.039 105.484 142.101C101.531 136.162 99.5542 128.929 99.5542 120.402C99.5542 108.982 103.432 99.7699 111.187 92.7655C119.094 85.6088 129.434 81.8783 142.206 81.5737V68.5547H151.33V82.0305C162.43 83.0964 172.162 86.0656 180.525 90.9383C188.888 95.8109 193.07 101.825 193.07 108.982V133.421H188.964C186.683 119.869 182.502 109.744 176.419 103.044C170.337 96.3438 161.974 92.3848 151.33 91.1667V148.953L170.717 160.373C181.057 166.616 188.356 172.402 192.614 177.732C196.871 183.061 199 189.837 199 198.06C199 211.003 194.742 221.281 186.227 228.894C177.864 236.508 166.232 240.314 151.33 240.314V254.704H142.206V239.858ZM142.206 90.7099C135.364 91.0144 129.51 93.2984 124.644 97.562C119.778 101.825 117.345 107.231 117.345 113.779C117.345 120.022 119.17 125.199 122.819 129.31C126.62 133.269 133.083 137.989 142.206 143.471V90.7099ZM151.33 231.178C159.237 230.874 165.851 228.666 171.173 224.554C176.647 220.443 179.384 214.885 179.384 207.881C179.384 201.486 177.408 195.928 173.454 191.208C169.501 186.487 163.114 181.538 154.295 176.361L151.33 174.762V231.178Z" stroke="#00FF19" stroke-opacity="0.2" stroke-width="15.2007" stroke-linecap="round" stroke-linejoin="round"/>
</g>
<g filter="url(#filter3_f)">
<path d="M141.93 239.88C130.069 238.512 119.957 235.395 111.594 230.529C103.383 225.664 99.2773 219.658 99.2773 212.512V188.109H103.383C105.664 201.641 109.921 211.904 116.156 218.898C122.542 225.74 131.133 229.769 141.93 230.986V169.408L125.963 159.83C116.232 154.052 109.313 148.198 105.208 142.269C101.254 136.339 99.2773 129.117 99.2773 120.603C99.2773 109.199 103.155 100.001 110.91 93.0068C118.817 85.8608 129.157 82.1358 141.93 81.8317V68.832H151.053V82.2878C162.153 83.3521 171.885 86.3169 180.248 91.1823C188.611 96.0477 192.793 102.053 192.793 109.199V133.602H188.687C186.406 120.07 182.225 109.96 176.143 103.27C170.06 96.5798 161.697 92.6267 151.053 91.4104V149.111L170.44 160.514C180.78 166.747 188.079 172.525 192.337 177.847C196.594 183.168 198.723 189.934 198.723 198.144C198.723 211.068 194.465 221.331 185.95 228.933C177.587 236.535 165.955 240.336 151.053 240.336V254.704H141.93V239.88ZM141.93 90.9543C135.087 91.2583 129.233 93.5389 124.367 97.7961C119.501 102.053 117.068 107.451 117.068 113.989C117.068 120.222 118.893 125.392 122.542 129.497C126.344 133.45 132.806 138.163 141.93 143.637V90.9543ZM151.053 231.214C158.96 230.909 165.575 228.705 170.897 224.6C176.371 220.495 179.108 214.945 179.108 207.951C179.108 201.565 177.131 196.016 173.177 191.302C169.224 186.589 162.837 181.648 154.018 176.478L151.053 174.882V231.214Z" stroke="#8DFF83" stroke-width="9.1204" stroke-linecap="round" stroke-linejoin="round"/>
</g>
<g filter="url(#filter4_f)">
<path d="M141.93 239.88C130.069 238.512 119.957 235.395 111.594 230.529C103.383 225.664 99.2773 219.658 99.2773 212.512V188.109H103.383C105.664 201.641 109.921 211.904 116.156 218.898C122.542 225.74 131.133 229.769 141.93 230.986V169.408L125.963 159.83C116.232 154.052 109.313 148.198 105.208 142.269C101.254 136.339 99.2773 129.117 99.2773 120.603C99.2773 109.199 103.155 100.001 110.91 93.0068C118.817 85.8608 129.157 82.1358 141.93 81.8317V68.832H151.053V82.2878C162.153 83.3521 171.885 86.3169 180.248 91.1823C188.611 96.0477 192.793 102.053 192.793 109.199V133.602H188.687C186.406 120.07 182.225 109.96 176.143 103.27C170.06 96.5798 161.697 92.6267 151.053 91.4104V149.111L170.44 160.514C180.78 166.747 188.079 172.525 192.337 177.847C196.594 183.168 198.723 189.934 198.723 198.144C198.723 211.068 194.465 221.331 185.95 228.933C177.587 236.535 165.955 240.336 151.053 240.336V254.704H141.93V239.88ZM141.93 90.9543C135.087 91.2583 129.233 93.5389 124.367 97.7961C119.501 102.053 117.068 107.451 117.068 113.989C117.068 120.222 118.893 125.392 122.542 129.497C126.344 133.45 132.806 138.163 141.93 143.637V90.9543ZM151.053 231.214C158.96 230.909 165.575 228.705 170.897 224.6C176.371 220.495 179.108 214.945 179.108 207.951C179.108 201.565 177.131 196.016 173.177 191.302C169.224 186.589 162.837 181.648 154.018 176.478L151.053 174.882V231.214Z" stroke="white" stroke-width="4.5602" stroke-linecap="round" stroke-linejoin="round"/>
</g>
<defs>
<filter id="filter0_f" x="66.199" y="35.199" width="165.048" height="251.474" filterUnits="userSpaceOnUse" color-interpolation-filters="sRGB">
<feFlood flood-opacity="0" result="BackgroundImageFix"/>
<feBlend mode="normal" in="SourceGraphic" in2="BackgroundImageFix" result="shape"/>
<feGaussianBlur stdDeviation="11.4005" result="effect1_foregroundBlur"/>
</filter>
<filter id="filter1_f" x="94.2338" y="75.9755" width="110.086" height="196.513" filterUnits="userSpaceOnUse" color-interpolation-filters="sRGB">
<feFlood flood-opacity="0" result="BackgroundImageFix"/>
<feBlend mode="normal" in="SourceGraphic" in2="BackgroundImageFix" result="shape"/>
<feGaussianBlur stdDeviation="1.52007" result="effect1_foregroundBlur"/>
</filter>
<filter id="filter2_dddii" x="0.750137" y="0.151463" width="297.054" height="383.758" filterUnits="userSpaceOnUse" color-interpolation-filters="sRGB">
<feFlood flood-opacity="0" result="BackgroundImageFix"/>
<feColorMatrix in="SourceAlpha" type="matrix" values="0 0 0 0 0 0 0 0 0 0 0 0 0 0 0 0 0 0 127 0"/>
<feOffset dy="15.2007"/>
<feGaussianBlur stdDeviation="6.08026"/>
<feColorMatrix type="matrix" values="0 0 0 0 0.000624999 0 0 0 0 0.15 0 0 0 0 0.0334875 0 0 0 0.7 0"/>
<feBlend mode="multiply" in2="BackgroundImageFix" result="effect1_dropShadow"/>
<feColorMatrix in="SourceAlpha" type="matrix" values="0 0 0 0 0 0 0 0 0 0 0 0 0 0 0 0 0 0 127 0"/>
<feOffset dy="30.4013"/>
<feGaussianBlur stdDeviation="15.2007"/>
<feColorMatrix type="matrix" values="0 0 0 0 0 0 0 0 0 0.108333 0 0 0 0 0.0108333 0 0 0 0.5 0"/>
<feBlend mode="multiply" in2="effect1_dropShadow" result="effect2_dropShadow"/>
<feColorMatrix in="SourceAlpha" type="matrix" values="0 0 0 0 0 0 0 0 0 0 0 0 0 0 0 0 0 0 127 0"/>
<feOffset dy="30.4013"/>
<feGaussianBlur stdDeviation="45.602"/>
<feColorMatrix type="matrix" values="0 0 0 0 0.528831 0 0 0 0 0.18901 0 0 0 0 0.795833 0 0 0 1 0"/>
<feBlend mode="color-dodge" in2="effect2_dropShadow" result="effect3_dropShadow"/>
<feBlend mode="normal" in="SourceGraphic" in2="effect3_dropShadow" result="shape"/>
<feColorMatrix in="SourceAlpha" type="matrix" values="0 0 0 0 0 0 0 0 0 0 0 0 0 0 0 0 0 0 127 0" result="hardAlpha"/>
<feOffset dx="-1.52007" dy="3.04013"/>
<feGaussianBlur stdDeviation="0.75"/>
<feComposite in2="hardAlpha" operator="arithmetic" k2="-1" k3="1"/>
<feColorMatrix type="matrix" values="0 0 0 0 1 0 0 0 0 1 0 0 0 0 1 0 0 0 0.5 0"/>
<feBlend mode="normal" in2="shape" result="effect4_innerShadow"/>
<feColorMatrix in="SourceAlpha" type="matrix" values="0 0 0 0 0 0 0 0 0 0 0 0 0 0 0 0 0 0 127 0" result="hardAlpha"/>
<feOffset dx="-1.52007" dy="-3.04013"/>
<feGaussianBlur stdDeviation="0.760033"/>
<feComposite in2="hardAlpha" operator="arithmetic" k2="-1" k3="1"/>
<feColorMatrix type="matrix" values="0 0 0 0 1 0 0 0 0 1 0 0 0 0 1 0 0 0 0.4 0"/>
<feBlend mode="normal" in2="effect4_innerShadow" result="effect5_innerShadow"/>
</filter>
<filter id="filter3_f" x="92.7173" y="62.2715" width="112.566" height="198.993" filterUnits="userSpaceOnUse" color-interpolation-filters="sRGB">
<feFlood flood-opacity="0" result="BackgroundImageFix"/>
<feBlend mode="normal" in="SourceGraphic" in2="BackgroundImageFix" result="shape"/>
<feGaussianBlur stdDeviation="1" result="effect1_foregroundBlur"/>
</filter>
<filter id="filter4_f" x="95.477" y="65.0317" width="107.046" height="193.472" filterUnits="userSpaceOnUse" color-interpolation-filters="sRGB">
<feFlood flood-opacity="0" result="BackgroundImageFix"/>
<feBlend mode="normal" in="SourceGraphic" in2="BackgroundImageFix" result="shape"/>
<feGaussianBlur stdDeviation="0.760033" result="effect1_foregroundBlur"/>
</filter>
</defs>
</svg>
