<svg width="346" height="491" viewBox="0 0 346 491" fill="none" xmlns="http://www.w3.org/2000/svg">
<g style="mix-blend-mode:color-dodge" filter="url(#filter0_f)">
<path d="M161.477 338.908C143.826 336.869 128.777 332.224 116.33 324.973C104.11 317.722 98 308.772 98 298.123V261.756H104.11C107.505 281.922 113.841 297.216 123.119 307.639C132.624 317.836 145.41 323.84 161.477 325.653V233.886L137.716 219.611C123.232 211.001 112.936 202.277 106.826 193.44C100.942 184.604 98 173.841 98 161.152C98 144.158 103.771 130.45 115.312 120.027C127.08 109.377 142.468 103.826 161.477 103.373V84H175.055V104.053C191.575 105.639 206.058 110.057 218.505 117.308C230.951 124.559 237.174 133.509 237.174 144.158V180.525H231.064C227.67 160.359 221.446 145.291 212.394 135.321C203.343 125.352 190.896 119.461 175.055 117.648V203.637L203.908 220.631C219.297 229.921 230.159 238.531 236.495 246.461C242.832 254.392 246 264.475 246 276.71C246 295.97 239.664 311.265 226.991 322.594C214.544 333.923 197.232 339.588 175.055 339.588V361H161.477V338.908ZM161.477 116.968C151.294 117.421 142.581 120.82 135.339 127.164C128.098 133.509 124.477 141.553 124.477 151.296C124.477 160.586 127.193 168.29 132.624 174.407C138.281 180.299 147.899 187.323 161.477 195.48V116.968ZM175.055 325.993C186.823 325.539 196.667 322.254 204.587 316.136C212.734 310.018 216.807 301.748 216.807 291.325C216.807 281.809 213.865 273.538 207.982 266.514C202.098 259.49 192.593 252.126 179.468 244.422L175.055 242.043V325.993Z" stroke="#FFE600" stroke-width="15.2007" stroke-linecap="round" stroke-linejoin="round"/>
</g>
<g style="mix-blend-mode:color-dodge" filter="url(#filter1_f)">
<path d="M161.477 337.908C143.826 335.869 128.777 331.224 116.33 323.973C104.11 316.722 98 307.772 98 297.123V260.756H104.11C107.505 280.922 113.841 296.216 123.119 306.639C132.624 316.836 145.41 322.84 161.477 324.653V232.886L137.716 218.611C123.232 210.001 112.936 201.277 106.826 192.44C100.942 183.604 98 172.841 98 160.152C98 143.158 103.771 129.45 115.312 119.027C127.08 108.377 142.468 102.826 161.477 102.373V83H175.055V103.053C191.575 104.639 206.058 109.057 218.505 116.308C230.951 123.559 237.174 132.509 237.174 143.158V179.525H231.064C227.67 159.359 221.446 144.291 212.394 134.321C203.343 124.352 190.896 118.461 175.055 116.648V202.637L203.908 219.631C219.297 228.921 230.159 237.531 236.495 245.461C242.832 253.392 246 263.475 246 275.71C246 294.97 239.664 310.265 226.991 321.594C214.544 332.923 197.232 338.588 175.055 338.588V360H161.477V337.908ZM161.477 115.968C151.294 116.421 142.581 119.82 135.339 126.164C128.098 132.509 124.477 140.553 124.477 150.296C124.477 159.586 127.193 167.29 132.624 173.407C138.281 179.299 147.899 186.323 161.477 194.48V115.968ZM175.055 324.993C186.823 324.539 196.667 321.254 204.587 315.136C212.734 309.018 216.807 300.748 216.807 290.325C216.807 280.809 213.865 272.538 207.982 265.514C202.098 258.49 192.593 251.126 179.468 243.422L175.055 241.043V324.993Z" fill="#FF0000"/>
<path d="M161.477 337.908C143.826 335.869 128.777 331.224 116.33 323.973C104.11 316.722 98 307.772 98 297.123V260.756H104.11C107.505 280.922 113.841 296.216 123.119 306.639C132.624 316.836 145.41 322.84 161.477 324.653V232.886L137.716 218.611C123.232 210.001 112.936 201.277 106.826 192.44C100.942 183.604 98 172.841 98 160.152C98 143.158 103.771 129.45 115.312 119.027C127.08 108.377 142.468 102.826 161.477 102.373V83H175.055V103.053C191.575 104.639 206.058 109.057 218.505 116.308C230.951 123.559 237.174 132.509 237.174 143.158V179.525H231.064C227.67 159.359 221.446 144.291 212.394 134.321C203.343 124.352 190.896 118.461 175.055 116.648V202.637L203.908 219.631C219.297 228.921 230.159 237.531 236.495 245.461C242.832 253.392 246 263.475 246 275.71C246 294.97 239.664 310.265 226.991 321.594C214.544 332.923 197.232 338.588 175.055 338.588V360H161.477V337.908ZM161.477 115.968C151.294 116.421 142.581 119.82 135.339 126.164C128.098 132.509 124.477 140.553 124.477 150.296C124.477 159.586 127.193 167.29 132.624 173.407C138.281 179.299 147.899 186.323 161.477 194.48V115.968ZM175.055 324.993C186.823 324.539 196.667 321.254 204.587 315.136C212.734 309.018 216.807 300.748 216.807 290.325C216.807 280.809 213.865 272.538 207.982 265.514C202.098 258.49 192.593 251.126 179.468 243.422L175.055 241.043V324.993Z" stroke="#FF0000" stroke-width="20" stroke-linecap="round" stroke-linejoin="round"/>
</g>
<g style="mix-blend-mode:multiply" opacity="0.2" filter="url(#filter2_f)">
<path d="M162.237 357.548C144.585 355.509 129.537 350.864 117.09 343.613C104.87 336.362 98.7598 327.412 98.7598 316.763V280.396H104.87C108.264 300.562 114.601 315.857 123.879 326.279C133.384 336.476 146.17 342.48 162.237 344.293V252.526L138.475 238.251C123.992 229.641 113.696 220.917 107.585 212.081C101.702 203.244 98.7598 192.481 98.7598 179.792C98.7598 162.798 104.53 149.09 116.072 138.667C127.839 128.018 143.228 122.466 162.237 122.013V102.64H175.815V122.693C192.335 124.279 206.818 128.697 219.264 135.948C231.711 143.199 237.934 152.149 237.934 162.798V199.165H231.824C228.429 178.999 222.206 163.931 213.154 153.962C204.102 143.992 191.656 138.101 175.815 136.288V222.277L204.668 239.271C220.056 248.561 230.919 257.171 237.255 265.101C243.592 273.032 246.76 283.115 246.76 295.351C246.76 314.61 240.423 329.905 227.751 341.234C215.304 352.563 197.992 358.228 175.815 358.228V379.64H162.237V357.548ZM162.237 135.608C152.053 136.061 143.341 139.46 136.099 145.805C128.858 152.149 125.237 160.193 125.237 169.936C125.237 179.226 127.952 186.93 133.384 193.047C139.041 198.939 148.659 205.963 162.237 214.12V135.608ZM175.815 344.633C187.582 344.18 197.426 340.894 205.347 334.776C213.494 328.659 217.567 320.388 217.567 309.965C217.567 300.449 214.625 292.178 208.741 285.154C202.858 278.13 193.353 270.766 180.228 263.062L175.815 260.683V344.633Z" stroke="#0085FF" stroke-width="4.5602" stroke-linecap="round" stroke-linejoin="round"/>
</g>
<g style="mix-blend-mode:hard-light" filter="url(#filter3_dddii)">
<path d="M162.477 338.868C144.826 336.829 129.777 332.184 117.33 324.933C105.11 317.682 99 308.732 99 298.083V261.716H105.11C108.505 281.882 114.841 297.176 124.119 307.599C133.624 317.796 146.41 323.8 162.477 325.613V233.846L138.716 219.571C124.232 210.961 113.936 202.237 107.826 193.4C101.942 184.564 99 173.801 99 161.112C99 144.118 104.771 130.41 116.312 119.987C128.08 109.337 143.468 103.786 162.477 103.333V83.96H176.055V104.013C192.575 105.599 207.058 110.017 219.505 117.268C231.951 124.519 238.174 133.469 238.174 144.118V180.485H232.064C228.67 160.319 222.446 145.251 213.394 135.281C204.343 125.312 191.896 119.421 176.055 117.608V203.597L204.908 220.591C220.297 229.881 231.159 238.491 237.495 246.421C243.832 254.352 247 264.435 247 276.67C247 295.93 240.664 311.225 227.991 322.554C215.544 333.883 198.232 339.548 176.055 339.548V360.96H162.477V338.868ZM162.477 116.928C152.294 117.381 143.581 120.78 136.339 127.124C129.098 133.469 125.477 141.513 125.477 151.256C125.477 160.546 128.193 168.25 133.624 174.367C139.281 180.259 148.899 187.283 162.477 195.44V116.928ZM176.055 325.953C187.823 325.499 197.667 322.214 205.587 316.096C213.734 309.978 217.807 301.708 217.807 291.285C217.807 281.769 214.865 273.498 208.982 266.474C203.098 259.45 193.593 252.086 180.468 244.382L176.055 242.003V325.953Z" stroke="#FF0000" stroke-opacity="0.2" stroke-width="15.2007" stroke-linecap="round" stroke-linejoin="round"/>
</g>
<g filter="url(#filter4_f)">
<path d="M162.079 339.028C144.427 336.988 129.378 332.343 116.932 325.093C104.712 317.842 98.6016 308.892 98.6016 298.242V261.875H104.712C108.106 282.041 114.443 297.336 123.721 307.759C133.225 317.955 146.011 323.96 162.079 325.772V234.005L138.317 219.731C123.834 211.12 113.537 202.397 107.427 193.56C101.543 184.723 98.6016 173.961 98.6016 161.272C98.6016 144.278 104.372 130.57 115.914 120.147C127.681 109.497 143.069 103.946 162.079 103.493V84.1196H175.657V104.172C192.176 105.759 206.66 110.177 219.106 117.428C231.553 124.678 237.776 133.628 237.776 144.278V180.645H231.666C228.271 160.479 222.048 145.411 212.996 135.441C203.944 125.471 191.498 119.58 175.657 117.767V203.756L204.51 220.75C219.898 230.04 230.761 238.65 237.097 246.581C243.433 254.511 246.602 264.594 246.602 276.83C246.602 296.09 240.265 311.384 227.592 322.713C215.146 334.043 197.834 339.707 175.657 339.707V361.12H162.079V339.028ZM162.079 117.088C151.895 117.541 143.183 120.94 135.941 127.284C128.699 133.628 125.079 141.672 125.079 151.415C125.079 160.705 127.794 168.409 133.225 174.527C138.883 180.418 148.501 187.442 162.079 195.599V117.088ZM175.657 326.112C187.424 325.659 197.268 322.374 205.189 316.256C213.336 310.138 217.409 301.868 217.409 291.445C217.409 281.928 214.467 273.658 208.583 266.634C202.699 259.61 193.195 252.246 180.069 244.542L175.657 242.163V326.112Z" stroke="#FF9983" stroke-width="9.1204" stroke-linecap="round" stroke-linejoin="round"/>
</g>
<g filter="url(#filter5_f)">
<path d="M162.079 339.028C144.427 336.989 129.378 332.344 116.932 325.093C104.712 317.842 98.6016 308.892 98.6016 298.243V261.876H104.712C108.106 282.042 114.443 297.336 123.721 307.759C133.225 317.956 146.011 323.96 162.079 325.773V234.006L138.317 219.731C123.834 211.121 113.537 202.397 107.427 193.561C101.543 184.724 98.6016 173.961 98.6016 161.272C98.6016 144.278 104.372 130.57 115.914 120.147C127.681 109.498 143.069 103.946 162.079 103.493V84.1201H175.657V104.173C192.176 105.759 206.66 110.177 219.106 117.428C231.553 124.679 237.776 133.629 237.776 144.278V180.645H231.666C228.271 160.479 222.048 145.411 212.996 135.442C203.944 125.472 191.498 119.581 175.657 117.768V203.757L204.51 220.751C219.898 230.041 230.761 238.651 237.097 246.581C243.433 254.512 246.602 264.595 246.602 276.831C246.602 296.09 240.265 311.385 227.592 322.714C215.146 334.043 197.834 339.708 175.657 339.708V361.12H162.079V339.028ZM162.079 117.088C151.895 117.541 143.183 120.94 135.941 127.285C128.699 133.629 125.079 141.673 125.079 151.416C125.079 160.706 127.794 168.41 133.225 174.527C138.883 180.419 148.501 187.443 162.079 195.6V117.088ZM175.657 326.113C187.424 325.66 197.268 322.374 205.189 316.256C213.336 310.138 217.409 301.868 217.409 291.445C217.409 281.929 214.467 273.658 208.583 266.634C202.699 259.61 193.195 252.246 180.069 244.542L175.657 242.163V326.113Z" stroke="white" stroke-width="4.5602" stroke-linecap="round" stroke-linejoin="round"/>
</g>
<defs>
<filter id="filter0_f" x="14.3971" y="0.396591" width="315.207" height="444.207" filterUnits="userSpaceOnUse" color-interpolation-filters="sRGB">
<feFlood flood-opacity="0" result="BackgroundImageFix"/>
<feBlend mode="normal" in="SourceGraphic" in2="BackgroundImageFix" result="shape"/>
<feGaussianBlur stdDeviation="38.0017" result="effect1_foregroundBlur"/>
</filter>
<filter id="filter1_f" x="65.199" y="50.199" width="213.602" height="342.602" filterUnits="userSpaceOnUse" color-interpolation-filters="sRGB">
<feFlood flood-opacity="0" result="BackgroundImageFix"/>
<feBlend mode="normal" in="SourceGraphic" in2="BackgroundImageFix" result="shape"/>
<feGaussianBlur stdDeviation="11.4005" result="effect1_foregroundBlur"/>
</filter>
<filter id="filter2_f" x="93.4403" y="97.3197" width="158.64" height="287.64" filterUnits="userSpaceOnUse" color-interpolation-filters="sRGB">
<feFlood flood-opacity="0" result="BackgroundImageFix"/>
<feBlend mode="normal" in="SourceGraphic" in2="BackgroundImageFix" result="shape"/>
<feGaussianBlur stdDeviation="1.52007" result="effect1_foregroundBlur"/>
</filter>
<filter id="filter3_dddii" x="0.196426" y="15.5572" width="345.609" height="474.609" filterUnits="userSpaceOnUse" color-interpolation-filters="sRGB">
<feFlood flood-opacity="0" result="BackgroundImageFix"/>
<feColorMatrix in="SourceAlpha" type="matrix" values="0 0 0 0 0 0 0 0 0 0 0 0 0 0 0 0 0 0 127 0"/>
<feOffset dy="15.2007"/>
<feGaussianBlur stdDeviation="6.08026"/>
<feColorMatrix type="matrix" values="0 0 0 0 0.15 0 0 0 0 0.000624999 0 0 0 0 0.000624999 0 0 0 0.7 0"/>
<feBlend mode="multiply" in2="BackgroundImageFix" result="effect1_dropShadow"/>
<feColorMatrix in="SourceAlpha" type="matrix" values="0 0 0 0 0 0 0 0 0 0 0 0 0 0 0 0 0 0 127 0"/>
<feOffset dy="30.4013"/>
<feGaussianBlur stdDeviation="15.2007"/>
<feColorMatrix type="matrix" values="0 0 0 0 0.45 0 0 0 0 0.0393375 0 0 0 0 0.013125 0 0 0 0.8 0"/>
<feBlend mode="multiply" in2="effect1_dropShadow" result="effect2_dropShadow"/>
<feColorMatrix in="SourceAlpha" type="matrix" values="0 0 0 0 0 0 0 0 0 0 0 0 0 0 0 0 0 0 127 0"/>
<feOffset dy="30.4013"/>
<feGaussianBlur stdDeviation="45.602"/>
<feColorMatrix type="matrix" values="0 0 0 0 0.528831 0 0 0 0 0.18901 0 0 0 0 0.795833 0 0 0 1 0"/>
<feBlend mode="color-dodge" in2="effect2_dropShadow" result="effect3_dropShadow"/>
<feBlend mode="normal" in="SourceGraphic" in2="effect3_dropShadow" result="shape"/>
<feColorMatrix in="SourceAlpha" type="matrix" values="0 0 0 0 0 0 0 0 0 0 0 0 0 0 0 0 0 0 127 0" result="hardAlpha"/>
<feOffset dx="-1.52007" dy="3.04013"/>
<feGaussianBlur stdDeviation="0.75"/>
<feComposite in2="hardAlpha" operator="arithmetic" k2="-1" k3="1"/>
<feColorMatrix type="matrix" values="0 0 0 0 1 0 0 0 0 1 0 0 0 0 1 0 0 0 0.5 0"/>
<feBlend mode="normal" in2="shape" result="effect4_innerShadow"/>
<feColorMatrix in="SourceAlpha" type="matrix" values="0 0 0 0 0 0 0 0 0 0 0 0 0 0 0 0 0 0 127 0" result="hardAlpha"/>
<feOffset dx="-1.52007" dy="-3.04013"/>
<feGaussianBlur stdDeviation="0.760033"/>
<feComposite in2="hardAlpha" operator="arithmetic" k2="-1" k3="1"/>
<feColorMatrix type="matrix" values="0 0 0 0 1 0 0 0 0 1 0 0 0 0 1 0 0 0 0.4 0"/>
<feBlend mode="normal" in2="effect4_innerShadow" result="effect5_innerShadow"/>
</filter>
<filter id="filter4_f" x="92.041" y="77.5596" width="161.12" height="290.12" filterUnits="userSpaceOnUse" color-interpolation-filters="sRGB">
<feFlood flood-opacity="0" result="BackgroundImageFix"/>
<feBlend mode="normal" in="SourceGraphic" in2="BackgroundImageFix" result="shape"/>
<feGaussianBlur stdDeviation="1" result="effect1_foregroundBlur"/>
</filter>
<filter id="filter5_f" x="94.8022" y="80.3198" width="155.6" height="284.6" filterUnits="userSpaceOnUse" color-interpolation-filters="sRGB">
<feFlood flood-opacity="0" result="BackgroundImageFix"/>
<feBlend mode="normal" in="SourceGraphic" in2="BackgroundImageFix" result="shape"/>
<feGaussianBlur stdDeviation="0.760033" result="effect1_foregroundBlur"/>
</filter>
</defs>
</svg>
